<svg xmlns="http://www.w3.org/2000/svg" viewBox="0 0 1200 700" role="img" aria-label="Visual de cierre editorial deportivo">
  <defs>
    <linearGradient id="bgC" x1="0" y1="0" x2="1" y2="1">
      <stop offset="0%" stop-color="#09152b"/>
      <stop offset="55%" stop-color="#112542"/>
      <stop offset="100%" stop-color="#09152b"/>
    </linearGradient>
    <radialGradient id="glow" cx="72%" cy="24%" r="58%">
      <stop offset="0%" stop-color="#4ad4ff" stop-opacity="0.25"/>
      <stop offset="100%" stop-color="#4ad4ff" stop-opacity="0"/>
    </radialGradient>
  </defs>
  <rect width="1200" height="700" fill="url(#bgC)"/>
  <rect width="1200" height="700" fill="url(#glow)"/>

  <g transform="translate(88 80)">
    <rect x="0" y="0" width="1024" height="540" rx="28" fill="#0a1a34" fill-opacity="0.84" stroke="#9bc8ff" stroke-opacity="0.28"/>
    <g transform="translate(46 46)">
      <rect x="0" y="0" width="420" height="450" rx="20" fill="#0b1d39" stroke="#8ec2ff" stroke-opacity="0.24"/>
      <rect x="24" y="28" width="164" height="12" rx="6" fill="#39d98d" fill-opacity="0.84"/>
      <rect x="24" y="54" width="304" height="8" rx="4" fill="#d8ebff" fill-opacity="0.46"/>
      <rect x="24" y="70" width="276" height="8" rx="4" fill="#d8ebff" fill-opacity="0.32"/>
      <g transform="translate(24 106)" fill="none">
        <path d="M0 264H372" stroke="#d7ebff" stroke-opacity="0.16"/>
        <path d="M0 198H372" stroke="#d7ebff" stroke-opacity="0.13"/>
        <path d="M0 132H372" stroke="#d7ebff" stroke-opacity="0.10"/>
        <path d="M0 66H372" stroke="#d7ebff" stroke-opacity="0.08"/>
        <path d="M0 264L68 226L134 238L206 170L276 182L338 118" stroke="#4ad4ff" stroke-width="3"/>
        <path d="M0 250L68 240L134 228L206 208L276 196L338 184" stroke="#39d98d" stroke-width="2.6" stroke-opacity="0.85"/>
      </g>
    </g>

    <g transform="translate(502 46)">
      <rect x="0" y="0" width="476" height="450" rx="20" fill="#0b1d39" stroke="#8ec2ff" stroke-opacity="0.24"/>
      <rect x="26" y="28" width="210" height="12" rx="6" fill="#4ad4ff" fill-opacity="0.82"/>
      <rect x="26" y="54" width="352" height="8" rx="4" fill="#d8ebff" fill-opacity="0.44"/>
      <rect x="26" y="72" width="318" height="8" rx="4" fill="#d8ebff" fill-opacity="0.30"/>
      <g transform="translate(238 236)">
        <circle cx="0" cy="0" r="110" fill="none" stroke="#cbe4ff" stroke-opacity="0.34" stroke-width="2"/>
        <circle cx="0" cy="0" r="70" fill="none" stroke="#cbe4ff" stroke-opacity="0.22" stroke-width="2"/>
        <circle cx="0" cy="0" r="30" fill="#4ad4ff" fill-opacity="0.78"/>
        <path d="M0 -110V110M-110 0H110" stroke="#cbe4ff" stroke-opacity="0.18"/>
      </g>
      <g transform="translate(34 124)">
        <rect x="0" y="0" width="184" height="128" rx="14" fill="#08162d" stroke="#8ec2ff" stroke-opacity="0.24"/>
        <rect x="16" y="18" width="112" height="9" rx="4.5" fill="#39d98d" fill-opacity="0.84"/>
        <rect x="16" y="40" width="142" height="7" rx="3.5" fill="#d8ebff" fill-opacity="0.42"/>
        <rect x="16" y="56" width="128" height="7" rx="3.5" fill="#d8ebff" fill-opacity="0.30"/>
        <rect x="16" y="82" width="152" height="8" rx="4" fill="#4ad4ff" fill-opacity="0.34"/>
      </g>
    </g>
  </g>
</svg>
