<svg xmlns="http://www.w3.org/2000/svg" viewBox="0 0 1200 700" role="img" aria-label="Ilustración editorial para hallazgos">
  <defs>
    <linearGradient id="bg" x1="0" y1="0" x2="1" y2="1">
      <stop offset="0%" stop-color="#0a1730"/>
      <stop offset="58%" stop-color="#122648"/>
      <stop offset="100%" stop-color="#0a1730"/>
    </linearGradient>
    <linearGradient id="lineA" x1="0" y1="0" x2="1" y2="0">
      <stop offset="0%" stop-color="#39d98d"/>
      <stop offset="100%" stop-color="#4ad4ff"/>
    </linearGradient>
    <pattern id="micro" width="24" height="24" patternUnits="userSpaceOnUse">
      <circle cx="2" cy="2" r="1" fill="#d8ecff" fill-opacity="0.10"/>
    </pattern>
  </defs>
  <rect width="1200" height="700" fill="url(#bg)"/>
  <rect width="1200" height="700" fill="url(#micro)"/>

  <g transform="translate(78 94)">
    <rect x="0" y="0" width="720" height="510" rx="24" fill="#0b1d39" fill-opacity="0.86" stroke="#9bc8ff" stroke-opacity="0.30"/>
    <g transform="translate(30 28)" stroke="#cde5ff" stroke-opacity="0.34" fill="none" stroke-width="2">
      <path d="M0 452H660V0H0Z"/>
      <path d="M330 0V452"/>
      <circle cx="330" cy="226" r="72"/>
      <rect x="0" y="132" width="110" height="188"/>
      <rect x="550" y="132" width="110" height="188"/>
    </g>
    <g transform="translate(44 380)">
      <rect x="0" y="0" width="176" height="88" rx="12" fill="#08162d" stroke="#8ec2ff" stroke-opacity="0.24"/>
      <rect x="20" y="20" width="90" height="9" rx="4.5" fill="#39d98d" fill-opacity="0.84"/>
      <rect x="20" y="38" width="138" height="7" rx="3.5" fill="#d8ebff" fill-opacity="0.42"/>
      <rect x="20" y="54" width="116" height="7" rx="3.5" fill="#d8ebff" fill-opacity="0.30"/>
    </g>
  </g>

  <g transform="translate(846 104)">
    <rect x="0" y="0" width="280" height="208" rx="20" fill="#0b1d39" fill-opacity="0.92" stroke="#9bc8ff" stroke-opacity="0.32"/>
    <rect x="22" y="24" width="132" height="12" rx="6" fill="#4ad4ff" fill-opacity="0.86"/>
    <rect x="22" y="48" width="220" height="8" rx="4" fill="#d7ebff" fill-opacity="0.50"/>
    <rect x="22" y="64" width="200" height="8" rx="4" fill="#d7ebff" fill-opacity="0.36"/>
    <path d="M22 166L72 144L118 150L168 104L216 114L258 78" stroke="url(#lineA)" stroke-width="3" fill="none"/>
    <circle cx="72" cy="144" r="4" fill="#39d98d"/>
    <circle cx="168" cy="104" r="4" fill="#4ad4ff"/>
    <circle cx="258" cy="78" r="4" fill="#4ad4ff"/>
  </g>

  <g transform="translate(846 336)">
    <rect x="0" y="0" width="280" height="268" rx="20" fill="#0b1d39" fill-opacity="0.92" stroke="#9bc8ff" stroke-opacity="0.32"/>
    <rect x="22" y="24" width="96" height="10" rx="5" fill="#39d98d" fill-opacity="0.82"/>
    <rect x="22" y="50" width="212" height="8" rx="4" fill="#d7ebff" fill-opacity="0.44"/>
    <rect x="22" y="68" width="180" height="8" rx="4" fill="#d7ebff" fill-opacity="0.30"/>
    <circle cx="140" cy="162" r="72" fill="none" stroke="#b9dcff" stroke-opacity="0.34" stroke-width="2"/>
    <circle cx="140" cy="162" r="10" fill="#4ad4ff" fill-opacity="0.80"/>
    <path d="M140 90L140 234M68 162H212" stroke="#b9dcff" stroke-opacity="0.24"/>
  </g>
</svg>
